<svg id="about" data-name="about" xmlns="http://www.w3.org/2000/svg" viewBox="0 0 64 64"><defs><style>.cls-1{fill:#51b3a3;}.cls-2{fill:#fff;}</style></defs><title>小樹苗</title><polygon class="cls-1" points="16.56 39.95 18.09 41.43 17.25 42.3 15.72 40.81 16.56 39.95"/><polygon class="cls-1" points="25.95 41.69 23.99 42.43 23.56 41.3 25.53 40.55 25.95 41.69"/><polygon class="cls-1" points="22.89 45.92 27.13 47.44 26.72 48.58 22.48 47.06 22.89 45.92"/><polygon class="cls-1" points="33.08 46.94 34.12 47.56 32.35 50.5 31.31 49.88 33.08 46.94"/><polygon class="cls-1" points="36.39 40.94 39.51 42.45 38.98 43.54 35.87 42.03 36.39 40.94"/><rect class="cls-1" x="39.69" y="45.49" width="3.64" height="1.21" transform="translate(-19.74 36.24) rotate(-38.86)"/><path class="cls-1" d="M42.87,23l.71-.08,0,.73c0,.23-.45,5.93-4.28,8.88a8.37,8.37,0,0,1-5.2,1.68,11.16,11.16,0,0,1-1.5-.11,10.33,10.33,0,0,1,.51,2.47h0V37l.13,4.87-1.22,0-.1-4.26a11.49,11.49,0,0,1-1.63.12,8.38,8.38,0,0,1-5.21-1.68c-3.82-2.95-4.26-8.65-4.27-8.88l-.06-.73.72.08c5.56.58,8.47,2.94,10,5.28C32,29.12,34.23,23.89,42.87,23Z"/><polygon class="cls-1" points="49.17 39 48.5 40.01 44.91 37.62 45.59 36.63 49.17 39"/><polygon class="cls-1" points="51.98 41.42 50.23 44.59 49.17 44.01 50.92 40.83 51.98 41.42"/><path class="cls-1" d="M32.57,4.29C16.45,4.29,3.38,17,3.38,32.73S16.45,61.16,32.57,61.16s29.2-12.72,29.2-28.43S48.7,4.29,32.57,4.29Zm0,49.72c-12.71,0-23-9.52-23-21.28s10.3-21.3,23-21.3,23,9.54,23,21.3S45.29,54,32.57,54Z"/><path class="cls-2" d="M33.21,41.85l-1.22,0-.1-4.26v-.37l-1.18-.73C28.58,35.14,24.91,32.64,24,31l1.06-.57c.74,1.35,4.42,3.88,6.66,5.28.4.27.76.49,1,.66l.27.17h0V37Z"/><path class="cls-2" d="M32.66,33.66l-1-.72c2.41-3.25,7.83-7,8.07-7.18l.68,1S34.94,30.57,32.66,33.66Z"/><rect class="cls-1" x="31.78" y="37.14" width="1.16" height="4.66"/></svg>